<?xml version="1.0" ?><!DOCTYPE svg  PUBLIC '-//W3C//DTD SVG 1.1//EN'  'http://www.w3.org/Graphics/SVG/1.1/DTD/svg11.dtd'><svg id="Capa_1" style="enable-background:new 0 0 58 58;" version="1.1" viewBox="0 0 58 58" xml:space="preserve" xmlns="http://www.w3.org/2000/svg" xmlns:xlink="http://www.w3.org/1999/xlink"><g><path d="M0,58l4.042-12.125c-2.05-3.45-3.231-7.476-3.231-11.78C0.81,21.34,11.15,11,23.905,11   S47,21.34,47,34.095S36.66,57.19,23.905,57.19c-3.881,0-7.535-0.961-10.745-2.653L0,58z" style="fill:#226BAC;"/><path d="M23.905,11C36.66,11,47,21.34,47,34.095c0,3.378-0.731,6.583-2.034,9.475L58,47l-4.042-12.125   c2.05-3.45,3.231-7.476,3.231-11.78C57.19,10.34,46.85,0,34.095,0c-9.426,0-17.528,5.65-21.118,13.746   C16.231,11.995,19.951,11,23.905,11z" style="fill:#3BA58B;"/><circle cx="13" cy="34" r="3" style="fill:#FFFFFF;"/><circle cx="24" cy="34" r="3" style="fill:#FFFFFF;"/><circle cx="35" cy="34" r="3" style="fill:#FFFFFF;"/></g><g/><g/><g/><g/><g/><g/><g/><g/><g/><g/><g/><g/><g/><g/><g/></svg>